<svg width="185" height="65" viewBox="0 0 185 65" fill="none" xmlns="http://www.w3.org/2000/svg">
<path d="M32.4868 60.144L32.4673 60.1326L32.4689 60.1212L32.4868 60.144Z" fill="black"/>
<path d="M61.7752 30.074C61.5147 30.0738 61.2585 30.141 61.0316 30.2692C60.8047 30.3973 60.6148 30.5819 60.4804 30.8052C60.3461 31.0284 60.2717 31.2826 60.2647 31.5431C60.2576 31.8036 60.3181 32.0614 60.4402 32.2916L53.2216 38.2698C52.9061 37.9843 52.5127 37.7994 52.0915 37.7387L52.1073 25.5947C52.421 25.5484 52.7201 25.4317 52.9823 25.2534C53.2445 25.0751 53.463 24.8397 53.6213 24.5649C53.7796 24.2902 53.8736 23.9831 53.8963 23.6669C53.9191 23.3506 53.8699 23.0333 53.7526 22.7387C53.6353 22.4441 53.4527 22.1799 53.2188 21.9659C52.9848 21.7519 52.7054 21.5936 52.4015 21.5029C52.0977 21.4122 51.7772 21.3915 51.4642 21.4423C51.1512 21.4931 50.8538 21.6141 50.5942 21.7962L44.1226 14.9842C44.2998 14.7323 44.3945 14.4316 44.3937 14.1236C44.3937 13.7232 44.2347 13.3391 43.9515 13.056C43.6683 12.7728 43.2843 12.6137 42.8838 12.6137C42.4834 12.6137 42.0993 12.7728 41.8161 13.056C41.533 13.3391 41.3739 13.7232 41.3739 14.1236C41.3735 14.3074 41.4071 14.4896 41.4732 14.6611L36.3508 17.9363C36.085 17.6329 35.7378 17.4121 35.3502 17.3004C34.9627 17.1886 34.5512 17.1905 34.1647 17.3058L30.776 10.0289C31.0728 9.7605 31.2509 9.38523 31.271 8.98561C31.2911 8.58598 31.1516 8.19474 30.8832 7.89795C30.6148 7.60116 30.2396 7.42313 29.84 7.40303C29.4403 7.38294 29.0491 7.52241 28.7523 7.79077L24.429 4.51244L24.4117 4.49983C24.6939 4.03645 24.8428 3.50413 24.8419 2.96153C24.8426 2.84192 24.8352 2.72239 24.8199 2.60375H24.8388C24.8061 2.33238 24.735 2.06704 24.6276 1.81569H24.6118C24.3877 1.28034 24.011 0.822746 23.5286 0.499896C23.0463 0.177045 22.4797 0.00319791 21.8993 0C21.6012 0.000297332 21.3048 0.0449166 21.0198 0.132394C20.93 0.160764 20.8417 0.193863 20.7551 0.228538C20.6226 0.28441 20.4945 0.350271 20.3721 0.425553C19.936 0.688218 19.5754 1.05921 19.3252 1.50248C19.075 1.94575 18.9437 2.44621 18.9441 2.95523C18.944 3.09599 18.9534 3.23659 18.9725 3.37605C18.9733 3.38074 18.9733 3.38555 18.9725 3.39024L18.9819 3.45486L18.9914 3.50057C19.0078 3.59376 19.0299 3.68587 19.0576 3.77639C14.6195 5.86907 10.7545 9.00568 7.79302 12.9179C6.03775 15.2369 4.62967 17.7993 3.61314 20.5243C3.41706 20.4844 3.21746 20.4643 3.01737 20.4644C2.29776 20.465 1.60202 20.7225 1.05547 21.1906C0.508922 21.6587 0.147491 22.3066 0.0362848 23.0175C-0.0749215 23.7285 0.0714072 24.4558 0.448912 25.0684C0.826417 25.6811 1.41028 26.1388 2.09533 26.3591C1.85745 27.8991 1.73837 29.4551 1.73913 31.0134C1.72919 35.6618 2.80197 40.2486 4.87246 44.4104C4.4813 44.6555 4.17999 45.0206 4.0136 45.4512C3.84722 45.8817 3.8247 46.3546 3.94943 46.799C4.07415 47.2434 4.33941 47.6355 4.70552 47.9167C5.07163 48.1978 5.51892 48.3528 5.98048 48.3586C6.35103 48.3596 6.71529 48.2628 7.03648 48.078C8.07606 49.5756 9.24816 50.9766 10.5386 52.2642C15.4066 57.1603 21.8218 60.2166 28.6908 60.9124C28.7205 61.9752 29.1671 62.9836 29.9342 63.7198C30.7013 64.456 31.7272 64.8608 32.7903 64.8467C33.8534 64.8326 34.8683 64.4008 35.6157 63.6446C36.363 62.8884 36.7827 61.8684 36.7842 60.8052C36.7842 60.7564 36.7842 60.7091 36.7842 60.6602C42.8199 59.6591 48.4016 56.8258 52.7724 52.5448C53.3892 53.0147 54.1632 53.2294 54.934 53.1442C55.7048 53.0591 56.4133 52.6807 56.9127 52.0875C57.4121 51.4943 57.6642 50.7317 57.6167 49.9577C57.5692 49.1837 57.2258 48.4576 56.6576 47.9299C59.6633 43.5339 61.4349 38.4122 61.7878 33.0986C61.9861 33.0972 62.1822 33.0568 62.3649 32.9797C62.5476 32.9026 62.7132 32.7902 62.8525 32.6491C62.9918 32.5079 63.1019 32.3407 63.1765 32.157C63.2511 31.9733 63.2889 31.7767 63.2875 31.5784C63.2862 31.3801 63.2458 31.184 63.1687 31.0014C63.0915 30.8187 62.9792 30.653 62.838 30.5137C62.6969 30.3745 62.5297 30.2644 62.3459 30.1897C62.1622 30.1151 61.9656 30.0774 61.7673 30.0787L61.7752 30.074ZM51.4942 25.5931L51.4784 37.7371C51.1086 37.7897 50.759 37.9386 50.465 38.169L42.6632 30.6666C42.7848 30.4732 42.861 30.2546 42.8858 30.0275C42.9107 29.8003 42.8836 29.5704 42.8066 29.3553L50.1876 24.8602C50.5156 25.2559 50.978 25.5168 51.4863 25.5931H51.4942ZM49.6391 40.0241L40.8128 41.9911C40.7014 41.7002 40.5283 41.4368 40.3055 41.2192C40.0827 41.0015 39.8154 40.8347 39.5219 40.7302L41.3849 31.3743C41.6861 31.3723 41.9799 31.2801 42.2281 31.1095L50.0315 38.615C49.7692 38.9788 49.6285 39.4163 49.6296 39.8649C49.6296 39.9169 49.6391 39.9705 49.6391 40.0241ZM32.8691 34.2192L27.8618 32.2191C28.0658 31.566 28.1012 30.8719 27.9648 30.2014C27.8284 29.5309 27.5246 28.9059 27.0816 28.3844L30.5822 24.4646L39.9759 29.3064C39.906 29.4841 39.8701 29.6734 39.8703 29.8644C39.8697 30.0745 39.9137 30.2824 39.9995 30.4743L35.1514 33.9418C34.9907 33.7936 34.7997 33.6821 34.5917 33.6149C34.3837 33.5477 34.1636 33.5265 33.9466 33.5528C33.7295 33.579 33.5208 33.652 33.3348 33.7668C33.1488 33.8816 32.9899 34.0354 32.8691 34.2176V34.2192ZM8.10667 45.9708L16.9834 43.5956C17.1979 44.1034 17.6005 44.5087 18.1068 44.7268C18.6132 44.9449 19.1843 44.9588 19.7007 44.7657C20.2171 44.5726 20.6389 44.1874 20.878 43.6906C21.117 43.1938 21.1549 42.6238 20.9836 42.0998L32.8707 36.2949L24.9554 47.4854C24.6834 47.3469 24.3846 47.2689 24.0796 47.2567C23.7746 47.2445 23.4706 47.2984 23.1884 47.4148C22.9062 47.5311 22.6525 47.7071 22.4447 47.9307C22.2368 48.1542 22.0798 48.4201 21.9844 48.7101L8.11455 46.2813C8.11608 46.2603 8.11608 46.2392 8.11455 46.2182C8.1166 46.1356 8.11397 46.053 8.10667 45.9708ZM30.0148 24.173L26.645 27.9462C26.0887 27.4648 25.4117 27.1442 24.6867 27.0187C23.9618 26.8933 23.2164 26.9678 22.5307 27.2343C21.8449 27.5007 21.2448 27.949 20.7947 28.531C20.3447 29.113 20.0618 29.8066 19.9764 30.5374L14.7012 29.8439C14.7012 29.8155 14.7012 29.7871 14.7012 29.7572C14.7024 29.0033 14.4212 28.2762 13.9131 27.7193L19.3507 21.6197C19.6745 21.8532 20.0423 22.0187 20.4318 22.106C20.8213 22.1934 21.2245 22.2008 21.617 22.1279C22.0095 22.0549 22.3831 21.9032 22.7153 21.6817C23.0475 21.4603 23.3313 21.1737 23.5495 20.8395L30.0148 24.173ZM23.8285 20.2957C23.9231 20.0555 23.9851 19.8037 24.0129 19.5471L32.6816 19.6054C32.7361 19.9946 32.9001 20.3602 33.1544 20.6598L30.4372 23.7017L23.8285 20.2957ZM32.7478 35.6724L20.7156 41.5482C20.548 41.3064 20.3336 41.1006 20.0852 40.9429L22.7804 34.8686C23.7048 35.1569 24.7019 35.1052 25.5915 34.7228C26.4812 34.3404 27.2048 33.6525 27.6317 32.7833L32.6374 34.7834C32.5836 35.0826 32.6221 35.3909 32.7478 35.6677V35.6724ZM14.6224 30.4523L19.9528 31.1521C19.979 31.8837 20.2031 32.5945 20.6014 33.2087C20.9997 33.823 21.5573 34.3177 22.2145 34.64L19.5351 40.6955C19.3475 40.6421 19.1533 40.6151 18.9583 40.6151C18.693 40.6149 18.4301 40.6641 18.1828 40.7601L13.4229 32.2301C14.0279 31.8053 14.4549 31.1723 14.6224 30.4523ZM35.6336 35.053C35.6338 34.8425 35.5904 34.6343 35.506 34.4414L40.3526 30.974C40.4803 31.0919 40.6274 31.1868 40.7876 31.2545L38.9214 40.6104H38.808C38.5063 40.6096 38.208 40.6736 37.9332 40.7979L35.0536 36.2445C35.2349 36.1034 35.3814 35.9226 35.482 35.7161C35.5825 35.5095 35.6344 35.2827 35.6336 35.053ZM41.5252 30.1039L41.5473 30.115H41.5394L41.5252 30.1039ZM43.0509 15.6209C43.2749 15.5977 43.4906 15.5233 43.6813 15.4034L50.1434 22.2154C49.9121 22.5112 49.764 22.8633 49.7144 23.2354C49.6648 23.6076 49.7155 23.9862 49.8613 24.3322L42.4803 28.8304C42.3018 28.6376 42.0757 28.4952 41.8247 28.4175L43.0509 15.6209ZM34.7668 21.4116C35.0428 21.4122 35.3163 21.3585 35.5715 21.2534C35.8268 21.1482 36.0588 20.9939 36.2543 20.7991C36.4499 20.6042 36.6051 20.3728 36.7112 20.1179C36.8173 19.8631 36.8721 19.5898 36.8725 19.3138C36.8735 19.0165 36.8106 18.7225 36.6881 18.4517L41.8057 15.1781C41.9805 15.3579 42.1971 15.4916 42.4362 15.5674L41.2131 28.3702C40.874 28.4071 40.5574 28.5577 40.3147 28.7973L30.9998 23.998L33.6115 21.0743C33.9548 21.2989 34.3566 21.4173 34.7668 21.4148V21.4116ZM29.047 10.2574C29.2314 10.3536 29.4336 10.4108 29.641 10.4254C29.8485 10.4401 30.0567 10.4119 30.2528 10.3425L33.6115 17.558C33.3662 17.7194 33.1576 17.9304 32.999 18.1775C32.8405 18.4245 32.7356 18.7021 32.691 18.9923L24.0224 18.934C23.9567 18.2736 23.6689 17.6552 23.2059 17.1797L29.047 10.2574ZM22.0569 5.90573C22.8133 5.86461 23.5247 5.53319 24.0428 4.98055L24.0586 4.99158L28.3851 8.27149C28.2626 8.52833 28.2154 8.81458 28.2489 9.09713C28.2824 9.37968 28.3951 9.64698 28.5742 9.8681L22.7425 16.7778C22.3804 16.5322 21.9679 16.3707 21.5352 16.305L22.0569 5.92149V5.90573ZM21.4454 5.87736V5.88997L20.9237 16.2703C20.1653 16.3084 19.4507 16.6369 18.9281 17.1877C18.4054 17.7385 18.1149 18.4694 18.1166 19.2287C18.1164 19.3541 18.1243 19.4794 18.1403 19.6038L5.86542 22.4913C5.73745 22.1178 5.53594 21.7737 5.2728 21.4794L20.1656 5.35882C20.5439 5.63054 20.9816 5.80828 21.4422 5.87736H21.4454ZM19.3775 4.52347C19.4722 4.67754 19.5814 4.82216 19.7038 4.95533L4.82518 21.0633C4.69541 20.9668 4.55841 20.8803 4.41539 20.8048C7.10868 13.6464 12.4717 7.8106 19.3775 4.52347ZM2.5461 31.0023C2.54779 29.4926 2.66847 27.9854 2.90704 26.4946H3.01106C3.06255 26.4946 3.11509 26.4946 3.16867 26.4946L5.3185 43.419C3.49122 39.5367 2.54605 35.2979 2.55083 31.0071L2.5461 31.0023ZM6.01357 44.0841L3.7739 26.4001C4.41919 26.2313 4.9905 25.8538 5.39877 25.3263C5.80703 24.7989 6.0293 24.1512 6.03091 23.4842C6.0313 23.3535 6.02288 23.2229 6.00569 23.0933L18.2853 20.2012C18.4159 20.5776 18.6219 20.9235 18.8905 21.2178L13.4529 27.3189C12.939 26.944 12.319 26.7425 11.6829 26.7436C10.995 26.7435 10.3276 26.9781 9.79125 27.4089C9.25488 27.8396 8.88163 28.4405 8.73328 29.1122C8.58493 29.784 8.67036 30.4862 8.97544 31.1028C9.28052 31.7193 9.78696 32.2132 10.411 32.5028L6.38712 44.122C6.26713 44.0987 6.14525 44.0865 6.02303 44.0857L6.01357 44.0841ZM6.95925 44.3221L10.9831 32.6951C11.2097 32.7491 11.442 32.7761 11.675 32.7755C12.0864 32.7759 12.4935 32.6923 12.8713 32.5296L17.6438 41.0627C17.3855 41.2622 17.1765 41.5182 17.0328 41.8111C16.8891 42.104 16.8145 42.426 16.8147 42.7523C16.8147 42.8361 16.8194 42.9197 16.8289 43.0029L7.94905 45.3781C7.75355 44.9237 7.40654 44.551 6.96713 44.3237L6.95925 44.3221ZM28.7523 60.0944C24.5389 59.6501 20.4723 58.2961 16.8334 56.1262C13.1945 53.9563 10.0702 51.0221 7.67638 47.5264L7.62437 47.4523L7.7016 47.4933L29.1053 59.0179C28.9376 59.3583 28.8187 59.7207 28.7523 60.0944ZM29.4174 58.4899L7.99318 46.9543C8.00144 46.9327 8.00829 46.9106 8.01367 46.8881L21.8836 49.3169C21.882 49.3368 21.882 49.3568 21.8836 49.3768C21.8836 49.7525 21.9836 50.1214 22.1732 50.4457C22.3628 50.7701 22.6353 51.0381 22.9627 51.2224C23.2901 51.4068 23.6606 51.5007 24.0363 51.4946C24.4119 51.4885 24.7792 51.3826 25.1004 51.1877L30.3473 57.5442C29.9875 57.8062 29.6733 58.1257 29.4174 58.4899ZM32.4672 60.1322V60.1212L32.4846 60.1433L32.4672 60.1322ZM32.6516 56.7593C32.0291 56.7723 31.418 56.9287 30.8659 57.2164L25.567 50.7984C25.9383 50.3891 26.1347 49.8506 26.1141 49.2983C26.0935 48.746 25.8575 48.2237 25.4566 47.8432L33.5216 36.4368C33.5964 36.4701 33.674 36.497 33.7533 36.5172L32.6516 56.7593ZM33.2632 56.794L34.3664 36.5424C34.4121 36.5359 34.4573 36.527 34.502 36.5156L37.4131 41.1226C37.1446 41.3521 36.937 41.6443 36.8088 41.9733C36.6805 42.3023 36.6354 42.658 36.6777 43.0086C36.72 43.3592 36.8482 43.6939 37.051 43.983C37.2538 44.2721 37.5249 44.5067 37.8402 44.6657L33.7328 56.8823C33.5781 56.8438 33.4213 56.8143 33.2632 56.794ZM35.5611 57.9083C35.2008 57.5564 34.778 57.2747 34.3144 57.0777L38.4234 44.8612C38.5507 44.8853 38.68 44.8975 38.8095 44.8974C39.3783 44.897 39.9237 44.6709 40.3259 44.2687C40.7281 43.8665 40.9542 43.3211 40.9546 42.7523C40.9546 42.6972 40.9546 42.6436 40.9546 42.5947L49.7809 40.6277C49.8693 40.858 49.9967 41.0712 50.1576 41.2582L35.5611 57.9083ZM36.6644 59.8454C36.6408 59.7508 36.614 59.6547 36.584 59.5632L52.0695 51.7882C52.1041 51.845 52.142 51.9001 52.1814 51.9458C47.9345 56.0955 42.523 58.8513 36.6692 59.8454H36.6644ZM51.5856 50.1522C51.5853 50.5252 51.6542 50.8951 51.7889 51.2429L36.3571 58.9943C36.2472 58.7758 36.1174 58.5679 35.9694 58.3733L50.6068 41.6664C51.0314 41.9424 51.5403 42.0586 52.0427 41.9942L53.5163 47.342C52.9496 47.562 52.4626 47.9479 52.1189 48.4494C51.7753 48.9508 51.591 49.5443 51.5903 50.1522H51.5856ZM60.9872 32.8748C60.6589 38.0977 58.9256 43.1349 55.9704 47.4539C55.5497 47.2434 55.0852 47.1354 54.6149 47.1387C54.4469 47.1384 54.2792 47.1527 54.1137 47.1812L52.6337 41.8271C52.9141 41.704 53.1649 41.5224 53.3693 41.2944C53.5738 41.0664 53.7271 40.7973 53.819 40.5052C53.911 40.2131 53.9394 39.9047 53.9024 39.6007C53.8654 39.2968 53.7639 39.0042 53.6046 38.7427L60.8295 32.7629C60.8794 32.8038 60.9321 32.8412 60.9872 32.8748Z" fill="white"/>
<path d="M51.7757 39.8617H51.7744V39.863H51.7757V39.8617Z" fill="black"/>
<path d="M38.8268 10.4307C39.6607 10.4307 40.3367 9.75472 40.3367 8.92081C40.3367 8.08691 39.6607 7.41089 38.8268 7.41089C37.9929 7.41089 37.3169 8.08691 37.3169 8.92081C37.3169 9.75472 37.9929 10.4307 38.8268 10.4307Z" fill="white"/>
<path d="M37.909 2.95531C38.4218 2.95531 38.8374 2.53967 38.8374 2.02697C38.8374 1.51426 38.4218 1.09863 37.909 1.09863C37.3963 1.09863 36.9807 1.51426 36.9807 2.02697C36.9807 2.53967 37.3963 2.95531 37.909 2.95531Z" fill="white"/>
<path d="M48.7662 7.41099C49.2789 7.41099 49.6946 6.99536 49.6946 6.48266C49.6946 5.96995 49.2789 5.55432 48.7662 5.55432C48.2535 5.55432 47.8379 5.96995 47.8379 6.48266C47.8379 6.99536 48.2535 7.41099 48.7662 7.41099Z" fill="white"/>
<path d="M53.5101 13.6981C54.0228 13.6981 54.4385 13.2825 54.4385 12.7698C54.4385 12.2571 54.0228 11.8414 53.5101 11.8414C52.9974 11.8414 52.5818 12.2571 52.5818 12.7698C52.5818 13.2825 52.9974 13.6981 53.5101 13.6981Z" fill="white"/>
<path d="M64.5112 22.2675C65.3416 22.2675 66.0148 21.5943 66.0148 20.7639C66.0148 19.9334 65.3416 19.2603 64.5112 19.2603C63.6808 19.2603 63.0076 19.9334 63.0076 20.7639C63.0076 21.5943 63.6808 22.2675 64.5112 22.2675Z" fill="white"/>
<path d="M41.5479 30.1186L41.5447 30.1202L41.5365 30.1267L41.5251 30.1072L41.5479 30.1186Z" fill="black"/>
<path d="M34.0118 35.3351L34.0102 35.3367L34.0054 35.3351H34.0118Z" fill="black"/>
<path d="M34.0179 35.7355L34.0131 35.7403L34.0115 35.7387L34.0179 35.7355Z" fill="black"/>
<path d="M34.1265 35.0536H34.1243L34.1221 35.0514L34.1265 35.0536Z" fill="black"/>
<path d="M18.9492 42.7491V42.7527L18.9438 42.7509L18.9474 42.7491H18.9492Z" fill="black"/>
<path d="M7.70233 47.4938L7.67684 47.5273L7.62427 47.4524L7.70233 47.4938Z" fill="black"/>
<path d="M77.1788 29.9236V15.9875H80.404V27.2956H87.392V29.9236H77.1788ZM95.7297 30.1625C94.628 30.1625 93.6061 29.9833 92.6637 29.625C91.7346 29.2666 90.925 28.7622 90.2349 28.1119C89.558 27.4615 89.0271 26.6984 88.6422 25.8224C88.2705 24.9464 88.0847 23.9908 88.0847 22.9555C88.0847 21.9203 88.2705 20.9647 88.6422 20.0887C89.0271 19.2127 89.5646 18.4495 90.2548 17.7992C90.9449 17.1488 91.7545 16.6445 92.6836 16.2861C93.6127 15.9278 94.6214 15.7486 95.7097 15.7486C96.8114 15.7486 97.8201 15.9278 98.7359 16.2861C99.6649 16.6445 100.468 17.1488 101.145 17.7992C101.835 18.4495 102.373 19.2127 102.757 20.0887C103.142 20.9514 103.335 21.907 103.335 22.9555C103.335 23.9908 103.142 24.953 102.757 25.8423C102.373 26.7183 101.835 27.4815 101.145 28.1318C100.468 28.7689 99.6649 29.2666 98.7359 29.625C97.8201 29.9833 96.818 30.1625 95.7297 30.1625ZM95.7097 27.4151C96.3335 27.4151 96.9043 27.3089 97.4219 27.0965C97.9528 26.8842 98.4173 26.5789 98.8155 26.1807C99.2137 25.7826 99.5189 25.3114 99.7313 24.7672C99.9569 24.2231 100.07 23.6192 100.07 22.9555C100.07 22.2919 99.9569 21.688 99.7313 21.1438C99.5189 20.5997 99.2137 20.1285 98.8155 19.7303C98.4306 19.3322 97.9727 19.0269 97.4418 18.8145C96.9109 18.6022 96.3335 18.496 95.7097 18.496C95.0859 18.496 94.5086 18.6022 93.9777 18.8145C93.4601 19.0269 93.0022 19.3322 92.604 19.7303C92.2058 20.1285 91.8939 20.5997 91.6683 21.1438C91.4559 21.688 91.3497 22.2919 91.3497 22.9555C91.3497 23.6059 91.4559 24.2098 91.6683 24.7672C91.8939 25.3114 92.1992 25.7826 92.5841 26.1807C92.9823 26.5789 93.4468 26.8842 93.9777 27.0965C94.5086 27.3089 95.0859 27.4151 95.7097 27.4151ZM105.759 29.9236V15.9875H111.791C113.039 15.9875 114.114 16.1932 115.016 16.6047C115.919 17.0028 116.616 17.5802 117.107 18.3367C117.598 19.0933 117.843 19.9958 117.843 21.0443C117.843 22.0796 117.598 22.9754 117.107 23.732C116.616 24.4752 115.919 25.046 115.016 25.4441C114.114 25.8423 113.039 26.0414 111.791 26.0414H107.55L108.984 24.6279V29.9236H105.759ZM114.618 29.9236L111.134 24.8668H114.578L118.102 29.9236H114.618ZM108.984 24.9862L107.55 23.4732H111.612C112.607 23.4732 113.351 23.2608 113.842 22.8361C114.333 22.3981 114.578 21.8008 114.578 21.0443C114.578 20.2745 114.333 19.6772 113.842 19.2525C113.351 18.8278 112.607 18.6154 111.612 18.6154H107.55L108.984 17.0825V24.9862ZM123.365 21.6017H130.074V24.1102H123.365V21.6017ZM123.604 27.3355H131.189V29.9236H120.399V15.9875H130.93V18.5756H123.604V27.3355ZM133.755 29.9236V15.9875H136.423L142.356 25.8224H140.942L146.776 15.9875H149.423L149.463 29.9236H146.437L146.417 20.6262H146.975L142.316 28.4503H140.863L136.104 20.6262H136.781V29.9236H133.755ZM152.77 29.9236V15.9875H155.995V29.9236H152.77ZM159.302 29.9236V15.9875H165.334C166.582 15.9875 167.657 16.1932 168.56 16.6047C169.462 17.0028 170.159 17.5802 170.65 18.3367C171.141 19.0933 171.387 19.9958 171.387 21.0443C171.387 22.0796 171.141 22.9754 170.65 23.732C170.159 24.4885 169.462 25.0725 168.56 25.4839C167.657 25.8821 166.582 26.0812 165.334 26.0812H161.094L162.527 24.6279V29.9236H159.302ZM162.527 24.9862L161.094 23.4533H165.155C166.151 23.4533 166.894 23.2409 167.385 22.8162C167.876 22.3915 168.122 21.8008 168.122 21.0443C168.122 20.2745 167.876 19.6772 167.385 19.2525C166.894 18.8278 166.151 18.6154 165.155 18.6154H161.094L162.527 17.0825V24.9862ZM178.463 30.1625C177.348 30.1625 176.279 30.0165 175.257 29.7245C174.235 29.4192 173.413 29.0277 172.789 28.5499L173.884 26.121C174.481 26.5457 175.184 26.8975 175.994 27.1762C176.817 27.4416 177.646 27.5744 178.483 27.5744C179.12 27.5744 179.631 27.5146 180.016 27.3952C180.414 27.2625 180.706 27.0833 180.892 26.8576C181.077 26.632 181.17 26.3732 181.17 26.0812C181.17 25.7096 181.024 25.4176 180.732 25.2052C180.44 24.9796 180.055 24.8004 179.578 24.6677C179.1 24.5217 178.569 24.389 177.985 24.2695C177.414 24.1368 176.837 23.9775 176.253 23.7917C175.682 23.6059 175.158 23.367 174.68 23.075C174.202 22.783 173.811 22.3981 173.505 21.9203C173.213 21.4425 173.067 20.8319 173.067 20.0887C173.067 19.2923 173.28 18.569 173.705 17.9186C174.143 17.255 174.793 16.7308 175.656 16.3459C176.532 15.9477 177.627 15.7486 178.941 15.7486C179.817 15.7486 180.679 15.8548 181.529 16.0671C182.378 16.2662 183.128 16.5715 183.778 16.9829L182.783 19.4317C182.133 19.0601 181.482 18.788 180.832 18.6154C180.182 18.4296 179.544 18.3367 178.921 18.3367C178.297 18.3367 177.786 18.4097 177.388 18.5557C176.989 18.7017 176.704 18.8942 176.532 19.1331C176.359 19.3587 176.273 19.6242 176.273 19.9294C176.273 20.2878 176.419 20.5798 176.711 20.8054C177.003 21.0178 177.388 21.1903 177.865 21.323C178.343 21.4558 178.868 21.5885 179.438 21.7212C180.022 21.8539 180.6 22.0066 181.17 22.1791C181.754 22.3516 182.285 22.5839 182.763 22.8759C183.241 23.1679 183.626 23.5528 183.918 24.0306C184.223 24.5084 184.376 25.1123 184.376 25.8423C184.376 26.6254 184.157 27.3421 183.719 27.9924C183.281 28.6428 182.624 29.1671 181.748 29.5652C180.885 29.9634 179.79 30.1625 178.463 30.1625Z" fill="white"/>
<path d="M86.1037 49.9236H85.1825L82.5303 46.2072C82.1809 46.2549 81.8315 46.2866 81.4503 46.2866H78.2739V49.9236H77.464V38.8063H81.4503C84.2455 38.8063 85.929 40.2039 85.929 42.5544C85.929 44.3173 84.9761 45.5402 83.3244 46.0325L86.1037 49.9236ZM78.2739 45.572H81.4503C83.8326 45.572 85.1031 44.4602 85.1031 42.5544C85.1031 40.6327 83.8326 39.5368 81.4503 39.5368H78.2739V45.572ZM89.7045 49.193H96.5655V49.9236H88.8945V38.8063H96.3273V39.5368H89.7045V43.9202H95.6285V44.6349H89.7045V49.193ZM102.441 50.003C100.789 50.003 99.201 49.3836 98.391 48.4942L98.7563 47.8907C99.5186 48.6848 100.932 49.2883 102.425 49.2883C104.648 49.2883 105.633 48.3195 105.633 47.1125C105.633 43.7773 98.6928 45.7784 98.6928 41.6809C98.6928 40.1086 99.8998 38.7269 102.631 38.7269C103.854 38.7269 105.125 39.108 105.983 39.7274L105.681 40.3786C104.76 39.7433 103.632 39.4416 102.631 39.4416C100.472 39.4416 99.5028 40.4421 99.5028 41.665C99.5028 45.0002 106.443 43.0309 106.443 47.0648C106.443 48.6372 105.188 50.003 102.441 50.003ZM110.007 49.193H116.868V49.9236H109.197V38.8063H116.629V39.5368H110.007V43.9202H115.931V44.6349H110.007V49.193ZM128.127 49.9236L126.698 46.7949H120.25L118.836 49.9236H117.963L123.077 38.8063H123.886L129 49.9236H128.127ZM120.567 46.1119H126.396L123.474 39.6957L120.567 46.1119ZM139.658 49.9236H138.737L136.085 46.2072C135.736 46.2549 135.386 46.2866 135.005 46.2866H131.829V49.9236H131.019V38.8063H135.005C137.8 38.8063 139.484 40.2039 139.484 42.5544C139.484 44.3173 138.531 45.5402 136.879 46.0325L139.658 49.9236ZM131.829 45.572H135.005C137.387 45.572 138.658 44.4602 138.658 42.5544C138.658 40.6327 137.387 39.5368 135.005 39.5368H131.829V45.572ZM147.15 50.003C143.847 50.003 141.385 47.6048 141.385 44.3649C141.385 41.125 143.847 38.7269 147.15 38.7269C148.723 38.7269 150.136 39.2351 151.105 40.2674L150.597 40.7915C149.644 39.8545 148.484 39.4733 147.182 39.4733C144.339 39.4733 142.195 41.5697 142.195 44.3649C142.195 47.1601 144.339 49.2565 147.182 49.2565C148.484 49.2565 149.644 48.8595 150.597 47.9225L151.105 48.4466C150.136 49.4789 148.723 50.003 147.15 50.003ZM162.061 38.8063H162.871V49.9236H162.061V44.6349H154.628V49.9236H153.818V38.8063H154.628V43.9202H162.061V38.8063Z" fill="white"/>
</svg>
