<svg width="202" height="71" viewBox="0 0 202 71" fill="none" xmlns="http://www.w3.org/2000/svg">
<path d="M35.4717 65.67L35.4507 65.6577L35.4524 65.6455L35.4717 65.67Z" fill="black"/>
<path d="M67.452 32.8376C67.1675 32.8374 66.8877 32.9108 66.64 33.0507C66.3923 33.1906 66.1849 33.3922 66.0382 33.636C65.8915 33.8797 65.8103 34.1573 65.8026 34.4417C65.7949 34.7261 65.861 35.0077 65.9943 35.259L58.1123 41.7866C57.7679 41.4748 57.3382 41.2729 56.8784 41.2066L56.8956 27.9466C57.2381 27.8961 57.5648 27.7687 57.8511 27.574C58.1374 27.3793 58.3759 27.1223 58.5487 26.8223C58.7215 26.5223 58.8242 26.187 58.8491 25.8417C58.8739 25.4963 58.8202 25.1499 58.6921 24.8282C58.564 24.5066 58.3647 24.2181 58.1092 23.9844C57.8537 23.7507 57.5487 23.5779 57.2169 23.4789C56.8851 23.3799 56.5352 23.3573 56.1935 23.4127C55.8517 23.4682 55.5269 23.6003 55.2435 23.7991L48.1772 16.3611C48.3707 16.0861 48.4741 15.7578 48.4732 15.4215C48.4732 14.9842 48.2995 14.5649 47.9904 14.2557C47.6812 13.9465 47.2618 13.7728 46.8246 13.7728C46.3873 13.7728 45.968 13.9465 45.6588 14.2557C45.3496 14.5649 45.1759 14.9842 45.1759 15.4215C45.1754 15.6221 45.2122 15.8211 45.2843 16.0084L39.6912 19.5845C39.401 19.2532 39.0218 19.0122 38.5987 18.8902C38.1755 18.7681 37.7262 18.7702 37.3042 18.8961L33.6042 10.9505C33.9282 10.6574 34.1226 10.2477 34.1446 9.81133C34.1665 9.37498 34.0142 8.94778 33.7212 8.62372C33.4282 8.29966 33.0184 8.10527 32.5821 8.08333C32.1457 8.06138 31.7185 8.21367 31.3944 8.5067L26.6739 4.9271L26.6549 4.91334C26.9632 4.40737 27.1257 3.82614 27.1247 3.23368C27.1254 3.10307 27.1174 2.97256 27.1007 2.84302H27.1213C27.0856 2.54671 27.008 2.25699 26.8907 1.98254H26.8735C26.6287 1.39799 26.2174 0.898351 25.6908 0.545833C25.1641 0.193314 24.5454 0.00349178 23.9117 0C23.5862 0.000324655 23.2626 0.0490442 22.9514 0.14456C22.8533 0.175538 22.757 0.211678 22.6623 0.249539C22.5177 0.310545 22.3779 0.382459 22.2441 0.464659C21.768 0.751461 21.3743 1.15655 21.101 1.64055C20.8278 2.12455 20.6845 2.67101 20.6849 3.2268C20.6848 3.38049 20.6951 3.53401 20.7159 3.68629C20.7169 3.69141 20.7169 3.69666 20.7159 3.70178L20.7262 3.77234L20.7366 3.82225C20.7545 3.92401 20.7787 4.02458 20.8088 4.12342C15.963 6.4084 11.7427 9.83324 8.50915 14.105C6.59258 16.6371 5.05511 19.4349 3.94516 22.4103C3.73107 22.3668 3.51313 22.3448 3.29464 22.3449C2.50891 22.3456 1.74924 22.6268 1.15246 23.1379C0.555689 23.649 0.161045 24.3564 0.0396191 25.1327C-0.0818063 25.909 0.0779691 26.7031 0.490164 27.3721C0.902359 28.041 1.53988 28.5408 2.28788 28.7813C2.02814 30.4628 1.89811 32.1618 1.89894 33.8633C1.8881 38.9388 3.05946 43.9472 5.32021 48.4914C4.8931 48.759 4.5641 49.1577 4.38243 49.6278C4.20075 50.098 4.17617 50.6143 4.31235 51.0995C4.44854 51.5848 4.73817 52.0129 5.13792 52.3199C5.53768 52.6269 6.02607 52.7961 6.53004 52.8024C6.93465 52.8036 7.33239 52.6979 7.68309 52.4961C8.8182 54.1312 10.098 55.661 11.5071 57.067C16.8223 62.4129 23.827 65.7502 31.3273 66.5099C31.3597 67.6703 31.8473 68.7714 32.6849 69.5753C33.5225 70.3791 34.6428 70.8211 35.8036 70.8057C36.9644 70.7904 38.0725 70.3189 38.8885 69.4931C39.7045 68.6674 40.1628 67.5537 40.1645 66.3928C40.1645 66.3395 40.1645 66.2879 40.1645 66.2345C46.7547 65.1413 52.8494 62.0478 57.6219 57.3733C58.2954 57.8864 59.1405 58.1208 59.9821 58.0278C60.8237 57.9349 61.5973 57.5218 62.1426 56.874C62.6879 56.2263 62.9631 55.3936 62.9113 54.5485C62.8594 53.7033 62.4844 52.9105 61.864 52.3343C65.1459 47.5344 67.0804 41.942 67.4657 36.1401C67.6822 36.1387 67.8963 36.0946 68.0958 36.0103C68.2953 35.9261 68.4762 35.8035 68.6283 35.6493C68.7803 35.4952 68.9005 35.3126 68.982 35.112C69.0635 34.9114 69.1047 34.6968 69.1032 34.4803C69.1018 34.2637 69.0577 34.0497 68.9734 33.8502C68.8892 33.6507 68.7666 33.4698 68.6124 33.3177C68.4583 33.1657 68.2757 33.0455 68.0751 32.964C67.8745 32.8825 67.6599 32.8413 67.4434 32.8428L67.452 32.8376ZM56.2262 27.9449L56.2089 41.2049C55.8051 41.2623 55.4235 41.4249 55.1024 41.6764L46.5836 33.4847C46.7165 33.2735 46.7996 33.0348 46.8268 32.7868C46.8539 32.5387 46.8243 32.2878 46.7402 32.0528L54.7995 27.1447C55.1577 27.5767 55.6625 27.8616 56.2176 27.9449H56.2262ZM54.2006 43.702L44.5632 45.8498C44.4416 45.5321 44.2526 45.2446 44.0093 45.007C43.766 44.7693 43.4741 44.5871 43.1538 44.473L45.1879 34.2574C45.5168 34.2552 45.8375 34.1545 46.1086 33.9683L54.6291 42.1635C54.3426 42.5607 54.189 43.0384 54.1903 43.5282C54.1903 43.585 54.2006 43.6435 54.2006 43.702ZM35.8896 37.3637L30.4221 35.1798C30.6449 34.4667 30.6836 33.7088 30.5346 32.9767C30.3857 32.2446 30.0539 31.5621 29.5702 30.9927L33.3925 26.7127L43.6494 31.9995C43.5731 32.1935 43.5339 32.4002 43.5341 32.6087C43.5335 32.8382 43.5816 33.0652 43.6752 33.2747L38.3815 37.0608C38.2061 36.899 37.9976 36.7772 37.7705 36.7039C37.5433 36.6306 37.303 36.6074 37.066 36.636C36.8291 36.6647 36.6012 36.7444 36.398 36.8698C36.1949 36.9951 36.0214 37.1631 35.8896 37.362V37.3637ZM8.85162 50.1952L18.5441 47.6017C18.7783 48.1562 19.2178 48.5988 19.7707 48.8369C20.3236 49.075 20.9472 49.0902 21.511 48.8794C22.0749 48.6685 22.5355 48.248 22.7965 47.7055C23.0576 47.1631 23.0989 46.5407 22.9118 45.9685L35.8913 39.6302L27.2487 51.849C26.9516 51.6978 26.6254 51.6126 26.2924 51.5993C25.9594 51.586 25.6274 51.6449 25.3193 51.7719C25.0111 51.8989 24.7341 52.0911 24.5072 52.3352C24.2803 52.5793 24.1088 52.8696 24.0047 53.1862L8.86022 50.5342C8.86189 50.5113 8.86189 50.4883 8.86022 50.4654C8.86247 50.3752 8.85959 50.285 8.85162 50.1952ZM32.7729 26.3943L29.0935 30.5143C28.4861 29.9887 27.7468 29.6386 26.9553 29.5016C26.1638 29.3646 25.3499 29.446 24.6011 29.7369C23.8523 30.0278 23.197 30.5174 22.7056 31.1528C22.2142 31.7883 21.9053 32.5457 21.8122 33.3436L16.0521 32.5863C16.0521 32.5554 16.0521 32.5244 16.0521 32.4917C16.0534 31.6685 15.7464 30.8746 15.1916 30.2665L21.1289 23.6064C21.4825 23.8614 21.884 24.042 22.3094 24.1374C22.7347 24.2328 23.1749 24.2409 23.6035 24.1613C24.0321 24.0816 24.44 23.9159 24.8027 23.6741C25.1654 23.4323 25.4752 23.1195 25.7136 22.7545L32.7729 26.3943ZM26.0182 22.1608C26.1215 21.8985 26.1892 21.6236 26.2195 21.3433L35.6848 21.407C35.7444 21.8319 35.9234 22.2312 36.2011 22.5583L33.2342 25.8798L26.0182 22.1608ZM35.7571 38.9504L22.6193 45.3662C22.4362 45.1022 22.2021 44.8775 21.9309 44.7053L24.8737 38.0728C25.8831 38.3876 26.9718 38.3311 27.9432 37.9136C28.9146 37.4961 29.7047 36.745 30.1708 35.7959L35.6366 37.9798C35.5779 38.3064 35.6199 38.6431 35.7571 38.9453V38.9504ZM15.9661 33.2506L21.7863 34.0147C21.8149 34.8136 22.0597 35.5897 22.4946 36.2604C22.9295 36.9311 23.5382 37.4712 24.2559 37.8232L21.3303 44.4351C21.1254 44.3769 20.9134 44.3473 20.7004 44.3474C20.4108 44.3472 20.1237 44.4009 19.8537 44.5057L14.6564 35.1919C15.3169 34.728 15.7832 34.0368 15.9661 33.2506ZM38.9082 38.2741C38.9083 38.0443 38.8609 37.8169 38.7688 37.6064L44.0607 33.8203C44.2001 33.9491 44.3608 34.0527 44.5357 34.1266L42.4981 44.3422H42.3742C42.0448 44.3414 41.7191 44.4112 41.419 44.547L38.2748 39.5752C38.4728 39.4211 38.6328 39.2237 38.7426 38.9982C38.8523 38.7726 38.909 38.5249 38.9082 38.2741ZM45.3411 32.8703L45.3652 32.8823H45.3566L45.3411 32.8703ZM47.007 17.0564C47.2516 17.0311 47.4872 16.9498 47.6954 16.8189L54.7513 24.2569C54.4987 24.5798 54.337 24.9643 54.2828 25.3706C54.2287 25.777 54.284 26.1904 54.4432 26.5682L46.384 31.4798C46.1891 31.2692 45.9422 31.1137 45.6681 31.0289L47.007 17.0564ZM37.9616 23.3792C38.263 23.3799 38.5616 23.3212 38.8403 23.2064C39.119 23.0916 39.3724 22.9231 39.5859 22.7104C39.7994 22.4976 39.9689 22.2449 40.0847 21.9666C40.2005 21.6884 40.2604 21.39 40.2608 21.0886C40.2619 20.764 40.1933 20.443 40.0595 20.1473L45.6474 16.5728C45.8383 16.7692 46.0748 16.9152 46.3358 16.9979L45.0003 30.9772C44.6301 31.0176 44.2844 31.1819 44.0194 31.4436L33.8485 26.2033L36.7002 23.0109C37.075 23.2561 37.5137 23.3854 37.9616 23.3827V23.3792ZM31.7163 11.2C31.9176 11.305 32.1384 11.3675 32.3649 11.3835C32.5914 11.3995 32.8187 11.3686 33.0328 11.2929L36.7002 19.1715C36.4324 19.3477 36.2046 19.5781 36.0314 19.8479C35.8583 20.1176 35.7437 20.4207 35.6951 20.7375L26.2299 20.6739C26.1582 19.9529 25.8439 19.2776 25.3384 18.7584L31.7163 11.2ZM24.0838 6.44843C24.9097 6.40352 25.6865 6.04166 26.2522 5.43823L26.2694 5.45027L30.9935 9.03159C30.8598 9.31203 30.8082 9.62458 30.8448 9.9331C30.8813 10.2416 31.0045 10.5335 31.2 10.7749L24.8324 18.3196C24.437 18.0514 23.9866 17.875 23.5142 17.8033L24.0838 6.46564V6.44843ZM23.4161 6.41745V6.43122L22.8464 17.7655C22.0184 17.807 21.2381 18.1657 20.6674 18.7671C20.0968 19.3686 19.7795 20.1666 19.7814 20.9957C19.7812 21.1326 19.7899 21.2694 19.8072 21.4053L6.40441 24.5581C6.26469 24.1503 6.04466 23.7746 5.75733 23.4532L22.0187 5.85126C22.4318 6.14795 22.9096 6.34203 23.4126 6.41745H23.4161ZM21.1582 4.93915C21.2616 5.10738 21.3809 5.26528 21.5144 5.41069L5.26858 22.9989C5.12689 22.8935 4.9773 22.7991 4.82113 22.7166C7.76192 14.9005 13.6177 8.52835 21.1582 4.93915ZM2.78008 33.8512C2.78192 32.2028 2.91369 30.557 3.17418 28.9293H3.28776C3.34398 28.9293 3.40134 28.9293 3.45985 28.9293L5.80724 47.409C3.81204 43.1698 2.78001 38.5416 2.78524 33.8564L2.78008 33.8512ZM6.56618 48.1352L4.1207 28.826C4.82529 28.6418 5.4491 28.2296 5.89488 27.6537C6.34066 27.0778 6.58335 26.3705 6.58511 25.6423C6.58554 25.4996 6.57634 25.357 6.55758 25.2155L19.9656 22.0575C20.1082 22.4685 20.3331 22.8462 20.6264 23.1675L14.6891 29.8294C14.128 29.42 13.451 29.2 12.7565 29.2012C12.0053 29.201 11.2767 29.4573 10.691 29.9276C10.1053 30.3979 9.6978 31.054 9.53581 31.7875C9.37383 32.5209 9.46711 33.2877 9.80022 33.9609C10.1333 34.6341 10.6863 35.1734 11.3677 35.4896L6.97405 48.1765C6.84304 48.1511 6.70996 48.1378 6.57651 48.1369L6.56618 48.1352ZM7.59876 48.3951L11.9924 35.6996C12.2398 35.7586 12.4934 35.788 12.7479 35.7873C13.197 35.7878 13.6415 35.6965 14.0541 35.5189L19.2651 44.8361C18.9832 45.0539 18.7549 45.3334 18.598 45.6533C18.4411 45.9731 18.3596 46.3247 18.3599 46.681C18.3598 46.7724 18.365 46.8638 18.3754 46.9546L8.67952 49.5481C8.46605 49.0519 8.08715 48.645 7.60736 48.3968L7.59876 48.3951ZM31.3944 65.6167C26.7939 65.1315 22.3535 63.6532 18.3803 61.2838C14.407 58.9145 10.9956 55.7107 8.38179 51.8938L8.325 51.8129L8.40933 51.8576L31.7799 64.4413C31.5968 64.813 31.467 65.2087 31.3944 65.6167ZM32.1207 63.8648L8.72771 51.2691C8.73673 51.2455 8.7442 51.2213 8.75008 51.1968L23.8945 53.8488C23.8928 53.8705 23.8928 53.8924 23.8945 53.9142C23.8946 54.3244 24.0037 54.7272 24.2108 55.0814C24.4178 55.4355 24.7153 55.7282 25.0728 55.9295C25.4303 56.1307 25.8349 56.2333 26.245 56.2266C26.6552 56.2199 27.0562 56.1043 27.407 55.8916L33.1361 62.8322C32.7431 63.1182 32.4001 63.4671 32.1207 63.8648ZM35.4507 65.658V65.6459L35.4697 65.67L35.4507 65.658ZM35.6521 61.9751C34.9724 61.9893 34.3052 62.1601 33.7023 62.4742L27.9164 55.4665C28.3219 55.0195 28.5363 54.4316 28.5138 53.8285C28.4913 53.2255 28.2336 52.6552 27.7959 52.2397L36.6021 39.7851C36.6837 39.8215 36.7684 39.8509 36.855 39.8729L35.6521 61.9751ZM36.3198 62.013L37.5245 39.9004C37.5743 39.8933 37.6237 39.8835 37.6725 39.8712L40.8511 44.9015C40.558 45.1521 40.3313 45.4711 40.1912 45.8304C40.0512 46.1897 40.002 46.578 40.0482 46.9608C40.0943 47.3436 40.2343 47.7091 40.4558 48.0248C40.6772 48.3405 40.9732 48.5965 41.3175 48.7702L36.8327 62.1094C36.6637 62.0674 36.4925 62.0352 36.3198 62.013ZM38.829 63.2297C38.4355 62.8454 37.9739 62.5379 37.4677 62.3228L41.9542 48.9836C42.0932 49.01 42.2344 49.0232 42.3759 49.0232C42.9969 49.0228 43.5924 48.7758 44.0316 48.3367C44.4707 47.8975 44.7177 47.302 44.7181 46.681C44.7181 46.6208 44.7181 46.5622 44.7181 46.5089L54.3555 44.3611C54.452 44.6125 54.5911 44.8454 54.7668 45.0495L38.829 63.2297ZM40.0337 65.3448C40.0078 65.2415 39.9786 65.1365 39.9459 65.0367L56.8543 56.5472C56.8922 56.6092 56.9335 56.6694 56.9765 56.7193C52.3394 61.2503 46.4306 64.2593 40.0388 65.3448H40.0337ZM56.326 54.7609C56.3256 55.1682 56.4009 55.572 56.548 55.9518L39.6981 64.4155C39.5781 64.1769 39.4363 63.9499 39.2747 63.7374L55.2573 45.4952C55.7209 45.7967 56.2765 45.9236 56.825 45.8532L58.4341 51.6924C57.8154 51.9326 57.2836 52.3541 56.9083 52.9016C56.5331 53.4491 56.3319 54.0971 56.3311 54.7609H56.326ZM66.5915 35.8957C66.2331 41.5986 64.3405 47.0987 61.1137 51.8146C60.6544 51.5848 60.1472 51.4669 59.6337 51.4704C59.4502 51.4701 59.2671 51.4857 59.0864 51.5169L57.4704 45.6708C57.7766 45.5363 58.0504 45.338 58.2736 45.089C58.4969 44.8401 58.6643 44.5463 58.7647 44.2274C58.8651 43.9084 58.8961 43.5717 58.8557 43.2398C58.8153 42.9079 58.7045 42.5884 58.5305 42.3029L66.4194 35.7736C66.4738 35.8183 66.5313 35.8591 66.5915 35.8957Z" fill="white"/>
<path d="M56.5335 43.5244H56.5322V43.5257H56.5335V43.5244Z" fill="black"/>
<path d="M42.3948 11.3892C43.3053 11.3892 44.0434 10.651 44.0434 9.74047C44.0434 8.82993 43.3053 8.0918 42.3948 8.0918C41.4842 8.0918 40.7461 8.82993 40.7461 9.74047C40.7461 10.651 41.4842 11.3892 42.3948 11.3892Z" fill="white"/>
<path d="M41.393 3.22651C41.9529 3.22651 42.4067 2.77268 42.4067 2.21286C42.4067 1.65304 41.9529 1.19922 41.393 1.19922C40.8332 1.19922 40.3794 1.65304 40.3794 2.21286C40.3794 2.77268 40.8332 3.22651 41.393 3.22651Z" fill="white"/>
<path d="M53.2475 8.09174C53.8073 8.09174 54.2612 7.63792 54.2612 7.0781C54.2612 6.51828 53.8073 6.06445 53.2475 6.06445C52.6877 6.06445 52.2339 6.51828 52.2339 7.0781C52.2339 7.63792 52.6877 8.09174 53.2475 8.09174Z" fill="white"/>
<path d="M58.4277 14.957C58.9875 14.957 59.4414 14.5032 59.4414 13.9433C59.4414 13.3835 58.9875 12.9297 58.4277 12.9297C57.8679 12.9297 57.4141 13.3835 57.4141 13.9433C57.4141 14.5032 57.8679 14.957 58.4277 14.957Z" fill="white"/>
<path d="M70.4392 24.3139C71.3459 24.3139 72.0809 23.5788 72.0809 22.6721C72.0809 21.7653 71.3459 21.0303 70.4392 21.0303C69.5324 21.0303 68.7974 21.7653 68.7974 22.6721C68.7974 23.5788 69.5324 24.3139 70.4392 24.3139Z" fill="white"/>
<path d="M45.3653 32.8863L45.3618 32.888L45.3531 32.895L45.3408 32.874L45.3653 32.8863Z" fill="black"/>
<path d="M37.1368 38.582L37.1352 38.5836L37.1304 38.582H37.1368Z" fill="black"/>
<path d="M37.1436 39.0195L37.1388 39.0243L37.1372 39.0227L37.1436 39.0195Z" fill="black"/>
<path d="M37.2622 38.2747H37.26L37.2578 38.2725L37.2622 38.2747Z" fill="black"/>
<path d="M20.6899 46.6777V46.6813L20.6846 46.6795L20.6881 46.6777H20.6899Z" fill="black"/>
<path d="M8.40995 51.8577L8.38211 51.8943L8.32471 51.8125L8.40995 51.8577Z" fill="black"/>
<path d="M84.2711 32.9033V17.6866H87.7927V30.0339H95.4228V32.9033H84.2711ZM104.527 33.1642C103.324 33.1642 102.208 32.9685 101.179 32.5772C100.165 32.186 99.2805 31.6353 98.5269 30.9251C97.7878 30.215 97.2081 29.3817 96.7878 28.4253C96.3821 27.4688 96.1792 26.4253 96.1792 25.295C96.1792 24.1646 96.3821 23.1211 96.7878 22.1647C97.2081 21.2082 97.795 20.3749 98.5486 19.6648C99.3022 18.9547 100.186 18.404 101.201 18.0127C102.215 17.6214 103.317 17.4257 104.505 17.4257C105.708 17.4257 106.809 17.6214 107.809 18.0127C108.824 18.404 109.7 18.9547 110.439 19.6648C111.193 20.3749 111.78 21.2082 112.2 22.1647C112.62 23.1066 112.831 24.1501 112.831 25.295C112.831 26.4253 112.62 27.476 112.2 28.447C111.78 29.4035 111.193 30.2368 110.439 30.9469C109.7 31.6425 108.824 32.186 107.809 32.5772C106.809 32.9685 105.715 33.1642 104.527 33.1642ZM104.505 30.1643C105.186 30.1643 105.809 30.0484 106.374 29.8165C106.954 29.5846 107.461 29.2513 107.896 28.8165C108.331 28.3818 108.664 27.8673 108.896 27.2731C109.142 26.679 109.266 26.0196 109.266 25.295C109.266 24.5704 109.142 23.911 108.896 23.3168C108.664 22.7226 108.331 22.2081 107.896 21.7734C107.476 21.3386 106.976 21.0053 106.396 20.7734C105.816 20.5415 105.186 20.4256 104.505 20.4256C103.824 20.4256 103.193 20.5415 102.614 20.7734C102.048 21.0053 101.549 21.3386 101.114 21.7734C100.679 22.2081 100.338 22.7226 100.092 23.3168C99.8602 23.911 99.7442 24.5704 99.7442 25.295C99.7442 26.0051 99.8602 26.6645 100.092 27.2731C100.338 27.8673 100.672 28.3818 101.092 28.8165C101.527 29.2513 102.034 29.5846 102.614 29.8165C103.193 30.0484 103.824 30.1643 104.505 30.1643ZM115.477 32.9033V17.6866H122.064C123.426 17.6866 124.6 17.9112 125.585 18.3605C126.571 18.7952 127.332 19.4256 127.868 20.2517C128.404 21.0778 128.672 22.0632 128.672 23.2081C128.672 24.3385 128.404 25.3167 127.868 26.1427C127.332 26.9543 126.571 27.5775 125.585 28.0122C124.6 28.447 123.426 28.6644 122.064 28.6644H117.434L118.999 27.121V32.9033H115.477ZM125.151 32.9033L121.347 27.3818H125.107L128.955 32.9033H125.151ZM118.999 27.5123L117.434 25.8602H121.868C122.955 25.8602 123.767 25.6283 124.303 25.1645C124.839 24.6863 125.107 24.0341 125.107 23.2081C125.107 22.3675 124.839 21.7154 124.303 21.2517C123.767 20.7879 122.955 20.556 121.868 20.556H117.434L118.999 18.8822V27.5123ZM134.701 23.8168H142.027V26.5558H134.701V23.8168ZM134.962 30.0774H143.245V32.9033H131.462V17.6866H142.962V20.5126H134.962V30.0774ZM146.047 32.9033V17.6866H148.959L155.437 28.4253H153.894L160.263 17.6866H163.154L163.198 32.9033H159.894L159.872 22.7516H160.481L155.394 31.2947H153.807L148.612 22.7516H149.351V32.9033H146.047ZM166.808 32.9033V17.6866H170.33V32.9033H166.808ZM173.941 32.9033V17.6866H180.528C181.89 17.6866 183.064 17.9112 184.049 18.3605C185.035 18.7952 185.796 19.4256 186.332 20.2517C186.868 21.0778 187.136 22.0632 187.136 23.2081C187.136 24.3385 186.868 25.3167 186.332 26.1427C185.796 26.9688 185.035 27.6065 184.049 28.0557C183.064 28.4905 181.89 28.7079 180.528 28.7079H175.897L177.463 27.121V32.9033H173.941ZM177.463 27.5123L175.897 25.8384H180.332C181.419 25.8384 182.231 25.6065 182.767 25.1428C183.303 24.679 183.571 24.0341 183.571 23.2081C183.571 22.3675 183.303 21.7154 182.767 21.2517C182.231 20.7879 181.419 20.556 180.332 20.556H175.897L177.463 18.8822V27.5123ZM194.862 33.1642C193.645 33.1642 192.478 33.0048 191.362 32.6859C190.247 32.3526 189.348 31.9251 188.667 31.4034L189.863 28.7513C190.515 29.2151 191.283 29.5991 192.167 29.9035C193.065 30.1933 193.971 30.3382 194.884 30.3382C195.58 30.3382 196.138 30.273 196.558 30.1426C196.993 29.9977 197.312 29.802 197.514 29.5556C197.717 29.3093 197.819 29.0267 197.819 28.7079C197.819 28.3021 197.659 27.9832 197.34 27.7514C197.022 27.505 196.601 27.3094 196.08 27.1644C195.558 27.005 194.978 26.8601 194.341 26.7297C193.717 26.5848 193.087 26.4109 192.449 26.208C191.826 26.0051 191.254 25.7442 190.732 25.4254C190.21 25.1066 189.783 24.6863 189.45 24.1646C189.131 23.6429 188.971 22.9762 188.971 22.1647C188.971 21.2951 189.203 20.5053 189.667 19.7952C190.145 19.0706 190.855 18.4982 191.797 18.0779C192.754 17.6431 193.949 17.4257 195.384 17.4257C196.341 17.4257 197.283 17.5417 198.21 17.7735C199.138 17.9909 199.956 18.3242 200.666 18.7735L199.58 21.4473C198.869 21.0415 198.159 20.7444 197.449 20.556C196.739 20.3531 196.043 20.2517 195.362 20.2517C194.681 20.2517 194.123 20.3314 193.688 20.4908C193.254 20.6502 192.942 20.8604 192.754 21.1212C192.565 21.3676 192.471 21.6574 192.471 21.9908C192.471 22.382 192.631 22.7009 192.949 22.9472C193.268 23.1791 193.688 23.3675 194.21 23.5124C194.732 23.6573 195.304 23.8023 195.928 23.9472C196.565 24.0921 197.196 24.2588 197.819 24.4472C198.456 24.6356 199.036 24.8892 199.558 25.208C200.08 25.5268 200.5 25.9471 200.819 26.4688C201.152 26.9905 201.319 27.6499 201.319 28.447C201.319 29.302 201.079 30.0846 200.601 30.7947C200.123 31.5048 199.406 32.0773 198.449 32.512C197.507 32.9468 196.312 33.1642 194.862 33.1642Z" fill="white"/>
<path d="M94.0161 54.9033H93.0103L90.1143 50.8455C89.7328 50.8975 89.3513 50.9322 88.9351 50.9322H85.4668V54.9033H84.5824V42.7644H88.9351C91.9872 42.7644 93.8253 44.2904 93.8253 46.857C93.8253 48.7818 92.7849 50.1171 90.9814 50.6547L94.0161 54.9033ZM85.4668 50.1518H88.9351C91.5363 50.1518 92.9236 48.9379 92.9236 46.857C92.9236 44.7587 91.5363 43.5621 88.9351 43.5621H85.4668V50.1518ZM97.9478 54.1056H105.439V54.9033H97.0634V42.7644H105.179V43.5621H97.9478V48.3483H104.416V49.1287H97.9478V54.1056ZM111.855 54.99C110.051 54.99 108.317 54.3137 107.433 53.3426L107.831 52.6836C108.664 53.5507 110.207 54.2097 111.837 54.2097C114.265 54.2097 115.34 53.1518 115.34 51.8339C115.34 48.1922 107.762 50.3772 107.762 45.9032C107.762 44.1864 109.08 42.6777 112.063 42.6777C113.398 42.6777 114.785 43.0939 115.722 43.7702L115.392 44.4812C114.386 43.7875 113.155 43.4581 112.063 43.4581C109.704 43.4581 108.646 44.5506 108.646 45.8858C108.646 49.5275 116.225 47.3772 116.225 51.7819C116.225 53.4987 114.855 54.99 111.855 54.99ZM120.116 54.1056H127.607V54.9033H119.231V42.7644H127.347V43.5621H120.116V48.3483H126.584V49.1287H120.116V54.1056ZM139.901 54.9033L138.34 51.4871H131.3L129.756 54.9033H128.803L134.387 42.7644H135.271L140.855 54.9033H139.901ZM131.647 50.7414H138.011L134.82 43.7355L131.647 50.7414ZM152.492 54.9033H151.486L148.59 50.8455C148.209 50.8975 147.827 50.9322 147.411 50.9322H143.943V54.9033H143.059V42.7644H147.411C150.463 42.7644 152.301 44.2904 152.301 46.857C152.301 48.7818 151.261 50.1171 149.457 50.6547L152.492 54.9033ZM143.943 50.1518H147.411C150.012 50.1518 151.4 48.9379 151.4 46.857C151.4 44.7587 150.012 43.5621 147.411 43.5621H143.943V50.1518ZM160.673 54.99C157.066 54.99 154.378 52.3715 154.378 48.8339C154.378 45.2962 157.066 42.6777 160.673 42.6777C162.389 42.6777 163.933 43.2326 164.991 44.3598L164.436 44.9321C163.395 43.9089 162.129 43.4927 160.707 43.4927C157.603 43.4927 155.262 45.7818 155.262 48.8339C155.262 51.8859 157.603 54.175 160.707 54.175C162.129 54.175 163.395 53.7415 164.436 52.7183L164.991 53.2906C163.933 54.4178 162.389 54.99 160.673 54.99ZM176.953 42.7644H177.837V54.9033H176.953V49.1287H168.837V54.9033H167.953V42.7644H168.837V48.3483H176.953V42.7644Z" fill="white"/>
</svg>
